<?xml version="1.0" encoding="utf-8"?>
<!-- Generator: Adobe Illustrator 24.1.0, SVG Export Plug-In . SVG Version: 6.00 Build 0)  -->
<svg version="1.1" id="Layer_1" xmlns="http://www.w3.org/2000/svg" xmlns:xlink="http://www.w3.org/1999/xlink" x="0px" y="0px"
	 viewBox="0 0 986 1001" style="enable-background:new 0 0 986 1001;" xml:space="preserve">
<style type="text/css">
	.st0{fill:#F7F3F0;stroke:#000000;stroke-miterlimit:10;}
</style>
<g>
	<g>
		<ellipse class="st0" cx="493" cy="963" rx="153.15" ry="37.5"/>
		<ellipse class="st0" cx="493" cy="960.76" rx="148.24" ry="35.9"/>
		<ellipse class="st0" cx="493" cy="954.29" rx="143.33" ry="34.3"/>
		<ellipse class="st0" cx="493" cy="943.94" rx="138.42" ry="32.71"/>
		<ellipse class="st0" cx="493" cy="930.07" rx="133.5" ry="31.11"/>
		<ellipse class="st0" cx="493" cy="913.03" rx="128.59" ry="29.51"/>
		<ellipse class="st0" cx="493" cy="893.17" rx="123.68" ry="27.91"/>
		<ellipse class="st0" cx="493" cy="870.87" rx="118.77" ry="26.31"/>
		<ellipse class="st0" cx="493" cy="846.47" rx="113.86" ry="24.72"/>
		<ellipse class="st0" cx="493" cy="820.33" rx="108.95" ry="23.12"/>
		<ellipse class="st0" cx="493" cy="792.8" rx="104.04" ry="21.52"/>
		<ellipse class="st0" cx="493" cy="764.24" rx="99.13" ry="19.92"/>
		<ellipse class="st0" cx="493" cy="735.01" rx="94.21" ry="18.32"/>
		<ellipse class="st0" cx="493" cy="705.47" rx="89.3" ry="16.73"/>
		<ellipse class="st0" cx="493" cy="675.96" rx="84.39" ry="15.13"/>
		<ellipse class="st0" cx="493" cy="646.86" rx="79.48" ry="13.53"/>
		<ellipse class="st0" cx="493" cy="618.5" rx="74.57" ry="11.93"/>
		<ellipse class="st0" cx="493" cy="591.26" rx="69.66" ry="10.34"/>
		<ellipse class="st0" cx="493" cy="565.48" rx="64.75" ry="8.74"/>
		<ellipse class="st0" cx="493" cy="541.52" rx="59.84" ry="7.14"/>
		<ellipse class="st0" cx="493" cy="500.5" rx="50.01" ry="3.94"/>
	</g>
	<g>
		<ellipse class="st0" cx="493" cy="888" rx="312.64" ry="37.5"/>
		<ellipse class="st0" cx="493" cy="886.26" rx="300.13" ry="35.9"/>
		<ellipse class="st0" cx="493" cy="881.2" rx="287.62" ry="34.3"/>
		<ellipse class="st0" cx="493" cy="873.09" rx="275.12" ry="32.71"/>
		<ellipse class="st0" cx="493" cy="862.19" rx="262.61" ry="31.11"/>
		<ellipse class="st0" cx="493" cy="848.76" rx="250.11" ry="29.51"/>
		<ellipse class="st0" cx="493" cy="833.04" rx="237.6" ry="27.91"/>
		<ellipse class="st0" cx="493" cy="815.31" rx="225.09" ry="26.31"/>
		<ellipse class="st0" cx="493" cy="795.83" rx="212.59" ry="24.72"/>
		<ellipse class="st0" cx="493" cy="774.84" rx="200.08" ry="23.12"/>
		<ellipse class="st0" cx="493" cy="752.62" rx="187.58" ry="21.52"/>
		<ellipse class="st0" cx="493" cy="729.42" rx="175.07" ry="19.92"/>
		<ellipse class="st0" cx="493" cy="705.49" rx="162.57" ry="18.32"/>
		<ellipse class="st0" cx="493" cy="681.11" rx="150.06" ry="16.73"/>
		<ellipse class="st0" cx="493" cy="656.52" rx="137.55" ry="15.13"/>
		<ellipse class="st0" cx="493" cy="631.99" rx="125.05" ry="13.53"/>
		<ellipse class="st0" cx="493" cy="607.77" rx="112.54" ry="11.93"/>
		<ellipse class="st0" cx="493" cy="584.13" rx="100.04" ry="10.34"/>
		<ellipse class="st0" cx="493" cy="561.32" rx="87.53" ry="8.74"/>
		<ellipse class="st0" cx="493" cy="539.61" rx="75.03" ry="7.14"/>
	</g>
	<g>
		<ellipse class="st0" cx="493" cy="813" rx="390.43" ry="37.5"/>
		<ellipse class="st0" cx="493" cy="811.75" rx="374.22" ry="35.9"/>
		<ellipse class="st0" cx="493" cy="808.11" rx="358.01" ry="34.3"/>
		<ellipse class="st0" cx="493" cy="802.25" rx="341.8" ry="32.71"/>
		<ellipse class="st0" cx="493" cy="794.32" rx="325.59" ry="31.11"/>
		<ellipse class="st0" cx="493" cy="784.49" rx="309.38" ry="29.51"/>
		<ellipse class="st0" cx="493" cy="772.91" rx="293.17" ry="27.91"/>
		<ellipse class="st0" cx="493" cy="759.76" rx="276.96" ry="26.31"/>
		<ellipse class="st0" cx="493" cy="745.19" rx="260.75" ry="24.72"/>
		<ellipse class="st0" cx="493" cy="729.36" rx="244.54" ry="23.12"/>
		<ellipse class="st0" cx="493" cy="712.44" rx="228.33" ry="21.52"/>
		<ellipse class="st0" cx="493" cy="694.59" rx="212.12" ry="19.92"/>
		<ellipse class="st0" cx="493" cy="675.97" rx="195.91" ry="18.32"/>
		<ellipse class="st0" cx="493" cy="656.75" rx="179.7" ry="16.73"/>
		<ellipse class="st0" cx="493" cy="637.07" rx="163.49" ry="15.13"/>
		<ellipse class="st0" cx="493" cy="617.12" rx="147.28" ry="13.53"/>
		<ellipse class="st0" cx="493" cy="597.04" rx="131.07" ry="11.93"/>
		<ellipse class="st0" cx="493" cy="577" rx="114.86" ry="10.34"/>
		<ellipse class="st0" cx="493" cy="557.17" rx="98.65" ry="8.74"/>
	</g>
	<g>
		<ellipse class="st0" cx="493" cy="738" rx="440.22" ry="37.5"/>
		<ellipse class="st0" cx="493" cy="737.25" rx="421.64" ry="35.9"/>
		<ellipse class="st0" cx="493" cy="735.03" rx="403.05" ry="34.3"/>
		<ellipse class="st0" cx="493" cy="731.4" rx="384.47" ry="32.71"/>
		<ellipse class="st0" cx="493" cy="726.45" rx="365.89" ry="31.11"/>
		<ellipse class="st0" cx="493" cy="720.22" rx="347.31" ry="29.51"/>
		<ellipse class="st0" cx="493" cy="712.78" rx="328.73" ry="27.91"/>
		<ellipse class="st0" cx="493" cy="704.2" rx="310.15" ry="26.31"/>
		<ellipse class="st0" cx="493" cy="694.55" rx="291.57" ry="24.72"/>
		<ellipse class="st0" cx="493" cy="683.88" rx="272.99" ry="23.12"/>
		<ellipse class="st0" cx="493" cy="672.27" rx="254.41" ry="21.52"/>
		<ellipse class="st0" cx="493" cy="659.77" rx="235.82" ry="19.92"/>
		<ellipse class="st0" cx="493" cy="646.45" rx="217.24" ry="18.32"/>
		<ellipse class="st0" cx="493" cy="632.39" rx="198.66" ry="16.73"/>
		<ellipse class="st0" cx="493" cy="617.63" rx="180.08" ry="15.13"/>
		<ellipse class="st0" cx="493" cy="602.25" rx="161.5" ry="13.53"/>
		<ellipse class="st0" cx="493" cy="586.31" rx="142.92" ry="11.93"/>
		<ellipse class="st0" cx="493" cy="569.88" rx="124.34" ry="10.34"/>
		<ellipse class="st0" cx="493" cy="553.01" rx="105.76" ry="8.74"/>
	</g>
	<g>
		<ellipse class="st0" cx="493" cy="663" rx="472.9" ry="37.5"/>
		<ellipse class="st0" cx="493" cy="662.74" rx="452.76" ry="35.9"/>
		<ellipse class="st0" cx="493" cy="661.94" rx="432.62" ry="34.3"/>
		<ellipse class="st0" cx="493" cy="660.56" rx="412.49" ry="32.71"/>
		<ellipse class="st0" cx="493" cy="658.57" rx="392.35" ry="31.11"/>
		<ellipse class="st0" cx="493" cy="655.95" rx="372.21" ry="29.51"/>
		<ellipse class="st0" cx="493" cy="652.65" rx="352.07" ry="27.91"/>
		<ellipse class="st0" cx="493" cy="648.65" rx="331.94" ry="26.31"/>
		<ellipse class="st0" cx="493" cy="643.91" rx="311.8" ry="24.72"/>
		<ellipse class="st0" cx="493" cy="638.4" rx="291.66" ry="23.12"/>
		<ellipse class="st0" cx="493" cy="632.09" rx="271.52" ry="21.52"/>
		<ellipse class="st0" cx="493" cy="624.95" rx="251.39" ry="19.92"/>
		<ellipse class="st0" cx="493" cy="616.94" rx="231.25" ry="18.32"/>
		<ellipse class="st0" cx="493" cy="608.03" rx="211.11" ry="16.73"/>
		<ellipse class="st0" cx="493" cy="598.19" rx="190.98" ry="15.13"/>
		<ellipse class="st0" cx="493" cy="587.38" rx="170.84" ry="13.53"/>
		<ellipse class="st0" cx="493" cy="575.58" rx="150.7" ry="11.93"/>
		<ellipse class="st0" cx="493" cy="562.75" rx="130.56" ry="10.34"/>
	</g>
	<g>
		<ellipse class="st0" cx="493" cy="38" rx="153.15" ry="37.5"/>
		<ellipse class="st0" cx="493" cy="40.24" rx="148.24" ry="35.9"/>
		<ellipse class="st0" cx="493" cy="46.71" rx="143.33" ry="34.3"/>
		<ellipse class="st0" cx="493" cy="57.06" rx="138.42" ry="32.71"/>
		<ellipse class="st0" cx="493" cy="70.93" rx="133.5" ry="31.11"/>
		<ellipse class="st0" cx="493" cy="87.97" rx="128.59" ry="29.51"/>
		<ellipse class="st0" cx="493" cy="107.83" rx="123.68" ry="27.91"/>
		<ellipse class="st0" cx="493" cy="130.13" rx="118.77" ry="26.31"/>
		<ellipse class="st0" cx="493" cy="154.53" rx="113.86" ry="24.72"/>
		<ellipse class="st0" cx="493" cy="180.67" rx="108.95" ry="23.12"/>
		<ellipse class="st0" cx="493" cy="208.2" rx="104.04" ry="21.52"/>
		<ellipse class="st0" cx="493" cy="236.76" rx="99.13" ry="19.92"/>
		<ellipse class="st0" cx="493" cy="265.99" rx="94.21" ry="18.32"/>
		<ellipse class="st0" cx="493" cy="295.53" rx="89.3" ry="16.73"/>
		<ellipse class="st0" cx="493" cy="325.04" rx="84.39" ry="15.13"/>
		<ellipse class="st0" cx="493" cy="354.14" rx="79.48" ry="13.53"/>
		<ellipse class="st0" cx="493" cy="382.5" rx="74.57" ry="11.93"/>
		<ellipse class="st0" cx="493" cy="409.74" rx="69.66" ry="10.34"/>
		<ellipse class="st0" cx="493" cy="435.52" rx="64.75" ry="8.74"/>
		<ellipse class="st0" cx="493" cy="459.48" rx="59.84" ry="7.14"/>
	</g>
	<g>
		<ellipse class="st0" cx="493" cy="113" rx="312.64" ry="37.5"/>
		<ellipse class="st0" cx="493" cy="114.74" rx="300.13" ry="35.9"/>
		<ellipse class="st0" cx="493" cy="119.8" rx="287.62" ry="34.3"/>
		<ellipse class="st0" cx="493" cy="127.91" rx="275.12" ry="32.71"/>
		<ellipse class="st0" cx="493" cy="138.81" rx="262.61" ry="31.11"/>
		<ellipse class="st0" cx="493" cy="152.24" rx="250.11" ry="29.51"/>
		<ellipse class="st0" cx="493" cy="167.96" rx="237.6" ry="27.91"/>
		<ellipse class="st0" cx="493" cy="185.69" rx="225.09" ry="26.31"/>
		<ellipse class="st0" cx="493" cy="205.17" rx="212.59" ry="24.72"/>
		<ellipse class="st0" cx="493" cy="226.16" rx="200.08" ry="23.12"/>
		<ellipse class="st0" cx="493" cy="248.38" rx="187.58" ry="21.52"/>
		<ellipse class="st0" cx="493" cy="271.58" rx="175.07" ry="19.92"/>
		<ellipse class="st0" cx="493" cy="295.51" rx="162.57" ry="18.32"/>
		<ellipse class="st0" cx="493" cy="319.89" rx="150.06" ry="16.73"/>
		<ellipse class="st0" cx="493" cy="344.48" rx="137.55" ry="15.13"/>
		<ellipse class="st0" cx="493" cy="369.01" rx="125.05" ry="13.53"/>
		<ellipse class="st0" cx="493" cy="393.23" rx="112.54" ry="11.93"/>
		<ellipse class="st0" cx="493" cy="416.87" rx="100.04" ry="10.34"/>
		<ellipse class="st0" cx="493" cy="439.68" rx="87.53" ry="8.74"/>
		<ellipse class="st0" cx="493" cy="461.39" rx="75.03" ry="7.14"/>
	</g>
	<g>
		<ellipse class="st0" cx="493" cy="188" rx="390.43" ry="37.5"/>
		<ellipse class="st0" cx="493" cy="189.25" rx="374.22" ry="35.9"/>
		<ellipse class="st0" cx="493" cy="192.89" rx="358.01" ry="34.3"/>
		<ellipse class="st0" cx="493" cy="198.75" rx="341.8" ry="32.71"/>
		<ellipse class="st0" cx="493" cy="206.68" rx="325.59" ry="31.11"/>
		<ellipse class="st0" cx="493" cy="216.51" rx="309.38" ry="29.51"/>
		<ellipse class="st0" cx="493" cy="228.09" rx="293.17" ry="27.91"/>
		<ellipse class="st0" cx="493" cy="241.24" rx="276.96" ry="26.31"/>
		<ellipse class="st0" cx="493" cy="255.81" rx="260.75" ry="24.72"/>
		<ellipse class="st0" cx="493" cy="271.64" rx="244.54" ry="23.12"/>
		<ellipse class="st0" cx="493" cy="288.56" rx="228.33" ry="21.52"/>
		<ellipse class="st0" cx="493" cy="306.41" rx="212.12" ry="19.92"/>
		<ellipse class="st0" cx="493" cy="325.03" rx="195.91" ry="18.32"/>
		<ellipse class="st0" cx="493" cy="344.25" rx="179.7" ry="16.73"/>
		<ellipse class="st0" cx="493" cy="363.93" rx="163.49" ry="15.13"/>
		<ellipse class="st0" cx="493" cy="383.88" rx="147.28" ry="13.53"/>
		<ellipse class="st0" cx="493" cy="403.96" rx="131.07" ry="11.93"/>
		<ellipse class="st0" cx="493" cy="424" rx="114.86" ry="10.34"/>
		<ellipse class="st0" cx="493" cy="443.83" rx="98.65" ry="8.74"/>
	</g>
	<g>
		<ellipse class="st0" cx="493" cy="263" rx="440.22" ry="37.5"/>
		<ellipse class="st0" cx="493" cy="263.75" rx="421.64" ry="35.9"/>
		<ellipse class="st0" cx="493" cy="265.97" rx="403.05" ry="34.3"/>
		<ellipse class="st0" cx="493" cy="269.6" rx="384.47" ry="32.71"/>
		<ellipse class="st0" cx="493" cy="274.55" rx="365.89" ry="31.11"/>
		<ellipse class="st0" cx="493" cy="280.78" rx="347.31" ry="29.51"/>
		<ellipse class="st0" cx="493" cy="288.22" rx="328.73" ry="27.91"/>
		<ellipse class="st0" cx="493" cy="296.8" rx="310.15" ry="26.31"/>
		<ellipse class="st0" cx="493" cy="306.45" rx="291.57" ry="24.72"/>
		<ellipse class="st0" cx="493" cy="317.12" rx="272.99" ry="23.12"/>
		<ellipse class="st0" cx="493" cy="328.73" rx="254.41" ry="21.52"/>
		<ellipse class="st0" cx="493" cy="341.23" rx="235.82" ry="19.92"/>
		<ellipse class="st0" cx="493" cy="354.55" rx="217.24" ry="18.32"/>
		<ellipse class="st0" cx="493" cy="368.61" rx="198.66" ry="16.73"/>
		<ellipse class="st0" cx="493" cy="383.37" rx="180.08" ry="15.13"/>
		<ellipse class="st0" cx="493" cy="398.75" rx="161.5" ry="13.53"/>
		<ellipse class="st0" cx="493" cy="414.69" rx="142.92" ry="11.93"/>
		<ellipse class="st0" cx="493" cy="431.12" rx="124.34" ry="10.34"/>
		<ellipse class="st0" cx="493" cy="447.99" rx="105.76" ry="8.74"/>
	</g>
	<g>
		<ellipse class="st0" cx="493" cy="338" rx="472.9" ry="37.5"/>
		<ellipse class="st0" cx="493" cy="338.26" rx="452.76" ry="35.9"/>
		<ellipse class="st0" cx="493" cy="339.06" rx="432.62" ry="34.3"/>
		<ellipse class="st0" cx="493" cy="340.44" rx="412.49" ry="32.71"/>
		<ellipse class="st0" cx="493" cy="342.43" rx="392.35" ry="31.11"/>
		<ellipse class="st0" cx="493" cy="345.05" rx="372.21" ry="29.51"/>
		<ellipse class="st0" cx="493" cy="348.35" rx="352.07" ry="27.91"/>
		<ellipse class="st0" cx="493" cy="352.35" rx="331.94" ry="26.31"/>
		<ellipse class="st0" cx="493" cy="357.09" rx="311.8" ry="24.72"/>
		<ellipse class="st0" cx="493" cy="362.6" rx="291.66" ry="23.12"/>
		<ellipse class="st0" cx="493" cy="368.91" rx="271.52" ry="21.52"/>
		<ellipse class="st0" cx="493" cy="376.05" rx="251.39" ry="19.92"/>
		<ellipse class="st0" cx="493" cy="384.06" rx="231.25" ry="18.32"/>
		<ellipse class="st0" cx="493" cy="392.97" rx="211.11" ry="16.73"/>
		<ellipse class="st0" cx="493" cy="402.81" rx="190.98" ry="15.13"/>
		<ellipse class="st0" cx="493" cy="413.62" rx="170.84" ry="13.53"/>
		<ellipse class="st0" cx="493" cy="425.42" rx="150.7" ry="11.93"/>
		<ellipse class="st0" cx="493" cy="438.25" rx="130.56" ry="10.34"/>
	</g>
	<g>
		<g>
			<ellipse class="st0" cx="493" cy="588" rx="492.5" ry="37.5"/>
			<ellipse class="st0" cx="493" cy="585.8" rx="471.43" ry="35.9"/>
			<ellipse class="st0" cx="493" cy="584.45" rx="450.36" ry="34.3"/>
			<ellipse class="st0" cx="493" cy="583.79" rx="429.29" ry="32.71"/>
			<ellipse class="st0" cx="493" cy="583.65" rx="408.22" ry="31.11"/>
			<ellipse class="st0" cx="493" cy="583.88" rx="387.15" ry="29.51"/>
			<ellipse class="st0" cx="493" cy="584.29" rx="366.08" ry="27.91"/>
			<ellipse class="st0" cx="493" cy="584.73" rx="345" ry="26.31"/>
			<ellipse class="st0" cx="493" cy="585.03" rx="323.93" ry="24.72"/>
			<ellipse class="st0" cx="493" cy="585.02" rx="302.86" ry="23.12"/>
			<ellipse class="st0" cx="493" cy="584.54" rx="281.79" ry="21.52"/>
			<ellipse class="st0" cx="493" cy="583.42" rx="260.72" ry="19.92"/>
			<ellipse class="st0" cx="493" cy="581.49" rx="239.65" ry="18.32"/>
			<ellipse class="st0" cx="493" cy="578.59" rx="218.58" ry="16.73"/>
			<ellipse class="st0" cx="493" cy="574.56" rx="197.51" ry="15.13"/>
			<ellipse class="st0" cx="493" cy="569.22" rx="176.44" ry="13.53"/>
			<ellipse class="st0" cx="493" cy="562.41" rx="155.37" ry="11.93"/>
			<ellipse class="st0" cx="493" cy="553.97" rx="134.3" ry="10.34"/>
			<ellipse class="st0" cx="493" cy="543.72" rx="113.23" ry="8.74"/>
			<ellipse class="st0" cx="493" cy="531.5" rx="92.16" ry="7.14"/>
			<ellipse class="st0" cx="493" cy="517.15" rx="71.08" ry="5.54"/>
		</g>
		<g>
			<ellipse class="st0" cx="493" cy="413" rx="492.5" ry="37.5"/>
			<ellipse class="st0" cx="493" cy="415.2" rx="471.43" ry="35.9"/>
			<ellipse class="st0" cx="493" cy="416.55" rx="450.36" ry="34.3"/>
			<ellipse class="st0" cx="493" cy="417.21" rx="429.29" ry="32.71"/>
			<ellipse class="st0" cx="493" cy="417.35" rx="408.22" ry="31.11"/>
			<ellipse class="st0" cx="493" cy="417.12" rx="387.15" ry="29.51"/>
			<ellipse class="st0" cx="493" cy="416.71" rx="366.08" ry="27.91"/>
			<ellipse class="st0" cx="493" cy="416.27" rx="345" ry="26.31"/>
			<ellipse class="st0" cx="493" cy="415.97" rx="323.93" ry="24.72"/>
			<ellipse class="st0" cx="493" cy="415.98" rx="302.86" ry="23.12"/>
			<ellipse class="st0" cx="493" cy="416.46" rx="281.79" ry="21.52"/>
			<ellipse class="st0" cx="493" cy="417.58" rx="260.72" ry="19.92"/>
			<ellipse class="st0" cx="493" cy="419.51" rx="239.65" ry="18.32"/>
			<ellipse class="st0" cx="493" cy="422.41" rx="218.58" ry="16.73"/>
			<ellipse class="st0" cx="493" cy="426.44" rx="197.51" ry="15.13"/>
			<ellipse class="st0" cx="493" cy="431.78" rx="176.44" ry="13.53"/>
			<ellipse class="st0" cx="493" cy="438.59" rx="155.37" ry="11.93"/>
			<ellipse class="st0" cx="493" cy="447.03" rx="134.3" ry="10.34"/>
			<ellipse class="st0" cx="493" cy="457.28" rx="113.23" ry="8.74"/>
			<ellipse class="st0" cx="493" cy="469.5" rx="92.16" ry="7.14"/>
			<ellipse class="st0" cx="493" cy="483.85" rx="71.08" ry="5.54"/>
		</g>
	</g>
</g>
</svg>
